<?xml version="1.0" encoding="utf-8"?>
<!-- Generator: Adobe Illustrator 17.0.0, SVG Export Plug-In . SVG Version: 6.00 Build 0)  -->
<!DOCTYPE svg PUBLIC "-//W3C//DTD SVG 1.1//EN" "http://www.w3.org/Graphics/SVG/1.1/DTD/svg11.dtd">
<svg version="1.1" id="Layer_1" xmlns="http://www.w3.org/2000/svg" xmlns:xlink="http://www.w3.org/1999/xlink" x="0px" y="0px"
	 width="512px" height="512px" viewBox="0 0 512 512" enable-background="new 0 0 512 512" xml:space="preserve">
<path d="M62.274,235.861c11.537,11.537,11.537,30.242,0,41.779c-11.537,11.537-30.242,11.537-41.779,0
	c-11.537-11.536-11.537-30.241,0-41.779C32.032,224.324,50.737,224.324,62.274,235.861z M108.192,411.781
	c-13.676,13.676-13.676,35.849,0,49.525c13.676,13.676,35.849,13.676,49.525,0c13.676-13.676,13.676-35.849,0-49.525
	C144.041,398.105,121.868,398.105,108.192,411.781z M243.426,129.232c-13.835-13.835-36.266-13.835-50.101,0
	c-13.834,13.835-13.834,36.266,0,50.101c13.835,13.835,36.266,13.835,50.101,0C257.261,165.498,257.261,143.067,243.426,129.232z
	 M288.013,80.42c12.309,0,22.287-9.978,22.287-22.287s-9.978-22.287-22.287-22.287c-12.309,0-22.287,9.978-22.287,22.287
	S275.704,80.42,288.013,80.42z M406.578,299.324c-12.309,0-22.287,9.978-22.287,22.287c0,12.309,9.978,22.287,22.287,22.287
	c12.309,0,22.287-9.978,22.287-22.287C428.866,309.302,418.887,299.324,406.578,299.324z M472.448,94.461
	c-16.316,0-29.542,13.226-29.542,29.542s13.226,29.542,29.542,29.542s29.542-13.226,29.542-29.542S488.763,94.461,472.448,94.461z
	 M258.533,250.332c-13.835,13.834-13.835,36.265,0,50.1c13.835,13.835,36.266,13.835,50.1,0c13.835-13.835,13.835-36.266,0-50.1
	C294.798,236.498,272.367,236.497,258.533,250.332z M328.822,372.588c-5.808,5.808-5.808,15.226,0,21.034
	c5.808,5.808,15.226,5.808,21.034,0c5.808-5.808,5.808-15.225,0-21.034C344.048,366.78,334.63,366.78,328.822,372.588z"/>
</svg>
